<svg width="288" height="288" viewBox="0 0 99.212 99.212" xmlns="http://www.w3.org/2000/svg">
    <rect width="99.212" height="99.212" rx="16" fill="white" />
    <g transform="translate(0, 11.406)">
        <path fill="#1e2189"
            d="M38.714 76.4c-.55-.073-1.06-.162-1.574-.217-3.452-.37-6.804-1.173-10.075-2.328-.22-.078-.44-.156-.653-.301.71-.046 1.422-.081 2.132-.14 5.753-.47 11.207-2.003 16.349-4.63 5.078-2.594 9.46-6.045 12.968-10.567 2.261-2.914 3.89-6.154 5.037-9.658 1.491-4.555 2.431-9.197 2.41-14.007-.022-4.812-.967-9.45-2.657-13.946-2.16-5.744-5.32-10.913-9.056-15.746-1.213-1.57-2.515-3.07-3.776-4.602-.032-.04-.05-.09-.144-.258.373.156.647.244.897.38 4.472 2.433 8.942 4.87 13.412 7.31 6.029 3.289 12.057 6.58 18.086 9.87 5.602 3.058 11.205 6.114 16.806 9.173.12.065.224.16.336.24l-.052.095-30.883-8.8a36.695 36.695 0 014.02 6.646c.046.082.07.122.098.194.297.748.64 1.448.875 2.184.549 1.722 1.046 3.46 1.561 5.221.01.064.023.1.033.168.445 2.175.73 4.338.797 6.525.035 1.147.013 2.295.007 3.473-.008.093-.005.157-.017.251-.248 1.831-.403 3.645-.731 5.428-.649 3.532-1.827 6.89-3.699 9.971-2.48 4.081-5.572 7.638-9.304 10.627-5.223 4.184-11.135 6.697-17.827 7.301-.362.033-.721.095-1.082.143h-4.294z" />
        <path fill="#1f2189"
            d="M10.095 13.402c3.497-2.763 7.34-4.775 11.645-5.867 2.396-.607 4.833-.886 7.303-.783 4.066.168 7.865 1.306 11.43 3.248 2.264 1.233 4.344 2.73 6.278 4.433.234.207.445.44.626.748-.234-.077-.48-.129-.7-.234a31.87 31.87 0 00-8.921-2.715c-2.276-.347-4.561-.418-6.85-.158-3.352.382-6.515 1.383-9.409 3.123-5.124 3.08-9.037 7.32-11.768 12.627C8.017 31.15 7.11 34.709 6.986 38.46c-.164 4.964 1.032 9.594 3.406 13.936 1.669 3.05 3.825 5.712 6.43 8.013.121.108.271.19.42.258 1.921.868 3.845 1.73 5.766 2.599.27.123.527.277.79.417l-.02.112-23.59-4.26.002-.067 12.847-.325c-.663-.504-1.251-.933-1.821-1.386-3.313-2.634-6.019-5.78-7.984-9.542a27.361 27.361 0 01-2.749-8.08c-1.098-6.4-.35-12.555 2.519-18.409C4.29 19.1 6.16 16.906 8.303 14.94c.572-.525 1.178-1.014 1.792-1.537z" />
        <path fill="#1e2189"
            d="M32.329 56.75c-6.227-.936-11.209-5.556-12.556-11.613-1.653-7.429 2.449-14.865 9.643-17.481 8.39-3.05 17.71 1.95 19.819 10.636 2.07 8.52-3.657 17.1-12.307 18.435-1.519.235-3.04.262-4.6.023m-1.971-25.86c-2.535 1.105-4.745 2.65-6.463 4.84-2.59 3.303-2.892 7.438-.786 11.03 1.578 2.692 3.972 4.277 6.98 4.977a9.384 9.384 0 003.555.14c2.116-.318 3.404-1.576 4.132-3.531 1.085-2.918-.003-5.996-3.326-6.905-.95-.26-1.896-.535-2.846-.794-1.393-.38-2.293-1.254-2.788-2.615-.441-1.213-.432-2.423.02-3.586.465-1.195 1.084-2.33 1.67-3.511v-.098c-.029.018-.057.036-.148.053z" />
        <path fill="#1f2289"
            d="M42.763 18.892c2.648.502 5.142 1.33 7.389 2.779 2.444 1.577 4.242 3.767 5.706 6.245 1.748 2.958 2.936 6.123 3.372 9.544.313 2.457.043 4.88-.577 7.263-.83 3.19-2.219 6.095-4.452 8.557-.306.337-.607.677-.91 1.016l-.14-.1.318-1.042c.98-3.207 1.562-6.475 1.429-9.841-.25-6.32-2.8-11.545-7.57-15.678-2.45-2.122-5.2-3.745-8.32-4.684-2.424-.73-4.916-.885-7.42-.655-1.765.162-3.516.47-5.274.712a1.073 1.073 0 01-.486-.021c4.989-4.022 10.67-5.182 16.935-4.095z" />
        <path fill="#202289"
            d="M18.559 25.257c-.15-1.733 1.012-3.148 2.701-3.333 1.56-.17 3.049 1.049 3.233 2.649.184 1.592-.957 3.057-2.569 3.297-1.602.238-3.08-.896-3.365-2.613z" />
    </g>
</svg>