<?xml version="1.0" encoding="UTF-8" standalone="no"?>
<!-- Created with Inkscape (http://www.inkscape.org/) -->

<svg
   width="99.211708mm"
   height="76.39991mm"
   viewBox="0 0 99.211708 76.39991"
   version="1.1"
   id="svg1"
   xml:space="preserve"
   inkscape:version="1.4.3 (0d15f75, 2025-12-25)"
   sodipodi:docname="shinolab_logo.svg"
   xmlns:inkscape="http://www.inkscape.org/namespaces/inkscape"
   xmlns:sodipodi="http://sodipodi.sourceforge.net/DTD/sodipodi-0.dtd"
   xmlns="http://www.w3.org/2000/svg"
   xmlns:svg="http://www.w3.org/2000/svg"><sodipodi:namedview
     id="namedview1"
     pagecolor="#ffffff"
     bordercolor="#000000"
     borderopacity="0.25"
     inkscape:showpageshadow="2"
     inkscape:pageopacity="0.0"
     inkscape:pagecheckerboard="0"
     inkscape:deskcolor="#d1d1d1"
     inkscape:document-units="mm"
     inkscape:zoom="2.3714506"
     inkscape:cx="168.67313"
     inkscape:cy="95.722002"
     inkscape:window-width="1872"
     inkscape:window-height="1515"
     inkscape:window-x="0"
     inkscape:window-y="0"
     inkscape:window-maximized="0"
     inkscape:current-layer="layer1" /><defs
     id="defs1" /><g
     inkscape:label="Layer 1"
     inkscape:groupmode="layer"
     id="layer1"
     transform="translate(-54.72389,-107.71658)"><g
       id="g3"
       transform="translate(25.884297,76.760331)"><g
         id="g4"><path
           fill="#1e2189"
           opacity="1"
           stroke="none"
           d="m 67.553804,107.35616 c -0.550645,-0.0731 -1.060566,-0.16185 -1.574093,-0.21691 -3.452475,-0.37018 -6.804194,-1.17309 -10.074949,-2.32796 -0.219777,-0.0776 -0.43926,-0.15603 -0.653549,-0.30144 0.710931,-0.0457 1.422736,-0.0809 2.132663,-0.13891 5.753134,-0.47043 11.206335,-2.00389 16.348675,-4.630652 5.078357,-2.594093 9.46048,-6.045388 12.967951,-10.566601 2.261196,-2.914743 3.890118,-6.154885 5.03716,-9.658495 1.491156,-4.554676 2.431043,-9.196908 2.409303,-14.006486 -0.02174,-4.812137 -0.965889,-9.450188 -2.6563,-13.946746 -2.159275,-5.74374 -5.320521,-10.912913 -9.056347,-15.746025 -1.212826,-1.569055 -2.515096,-3.068958 -3.775286,-4.601452 -0.03234,-0.03933 -0.05099,-0.08992 -0.143947,-0.258233 0.372174,0.155922 0.646995,0.24395 0.896022,0.379413 4.472703,2.433094 8.942782,4.871016 13.412418,7.309752 6.029057,3.289597 12.057095,6.581073 18.085875,9.871171 5.60218,3.057289 11.20493,6.113539 16.80613,9.172617 0.11995,0.0655 0.2242,0.159734 0.33577,0.240565 -0.0174,0.03142 -0.0348,0.06284 -0.0522,0.09426 -10.25454,-2.922046 -20.50907,-5.844096 -30.882621,-8.800053 1.616171,2.125756 2.914411,4.300936 4.020811,6.645804 0.0453,0.08288 0.0699,0.122863 0.0977,0.194103 0.29678,0.747885 0.63958,1.448819 0.87418,2.184267 0.5493,1.722095 1.04675,3.460731 1.56147,5.221241 0.01,0.0642 0.0233,0.09983 0.0331,0.168128 0.44452,2.174345 0.73036,4.337439 0.79677,6.524765 0.0348,1.146692 0.0134,2.295087 0.007,3.472985 -0.008,0.09343 -0.005,0.156586 -0.0169,0.251 -0.24766,1.831031 -0.4035,3.645064 -0.73098,5.42757 -0.64895,3.532196 -1.82676,6.891122 -3.69872,9.97188 -2.479754,4.081017 -5.572568,7.637872 -9.303928,10.626505 -5.223842,4.184057 -11.135184,6.697277 -17.827563,7.301047 -0.361794,0.0326 -0.720947,0.0946 -1.081326,0.14289 -1.418458,0 -2.836912,0 -4.294426,0 z"
           id="path2-4"
           style="stroke-width:0.0833362" /><path
           fill="#1f2189"
           opacity="1"
           stroke="none"
           d="m 38.934191,44.358142 c 3.497147,-2.7631 7.341237,-4.774943 11.645673,-5.866482 2.395682,-0.607508 4.832414,-0.886146 7.302637,-0.78375 4.066587,0.168567 7.864813,1.306311 11.429885,3.247945 2.264554,1.233335 4.344373,2.730974 6.27784,4.433688 0.234311,0.20635 0.445378,0.439103 0.626623,0.747526 -0.234119,-0.07654 -0.479885,-0.128538 -0.700591,-0.23333 -2.839326,-1.348106 -5.815843,-2.242681 -8.920821,-2.715818 -2.276117,-0.346835 -4.561006,-0.41767 -6.849232,-0.157261 -3.353036,0.38159 -6.515211,1.382768 -9.409501,3.122483 -5.123728,3.079798 -9.037538,7.321046 -11.768301,12.627126 -1.711921,3.326391 -2.618114,6.88545 -2.742387,10.63579 -0.164496,4.964195 1.031245,9.594253 3.405603,13.935716 1.668508,3.05084 3.825105,5.712823 6.429255,8.013571 0.121732,0.107553 0.272194,0.190365 0.421422,0.257827 1.920774,0.868397 3.84472,1.729781 5.765106,2.599037 0.270777,0.122563 0.52692,0.277456 0.789837,0.417389 -0.0065,0.03716 -0.01295,0.07432 -0.01942,0.111484 -7.863691,-1.419971 -15.727379,-2.839941 -23.591069,-4.259912 0.0011,-0.0224 0.0021,-0.04479 0.0032,-0.06719 4.248094,-0.107314 8.496188,-0.214628 12.847058,-0.324536 C 41.213623,89.595644 40.625114,89.166156 40.055336,88.713112 36.742278,86.0788 34.036817,82.932884 32.07201,79.17132 30.739753,76.620757 29.809581,73.929756 29.32256,71.091226 28.224396,64.69073 28.972158,58.535827 31.841197,52.682639 33.129224,50.054908 34.999181,47.861985 37.142895,45.894883 37.715,45.36991 38.320632,44.881475 38.9342,44.358144 Z"
           id="path41-9"
           style="stroke-width:0.0833362" /><path
           fill="#1e2189"
           opacity="1"
           stroke="none"
           d="M 61.168236,87.706397 C 54.941683,86.770681 49.959954,82.150592 48.612169,76.093352 46.95923,68.664688 51.061339,61.22846 58.255413,58.612259 c 8.389474,-3.050919 17.709266,1.950542 19.819202,10.635968 2.069733,8.519961 -3.657495,17.100422 -12.30727,18.43521 -1.518732,0.234362 -3.04021,0.262247 -4.599109,0.02296 M 59.196313,61.846061 c -2.534887,1.105441 -4.744909,2.651095 -6.462312,4.841058 -2.589788,3.302395 -2.892092,7.437344 -0.786104,11.029961 1.57749,2.691042 3.971422,4.275945 6.979473,4.975686 1.174075,0.273116 2.358866,0.320848 3.554963,0.140732 2.116003,-0.31863 3.40467,-1.576501 4.132038,-3.531616 1.085459,-2.917632 -0.003,-5.995517 -3.326123,-6.905025 -0.949625,-0.259907 -1.89525,-0.534468 -2.845157,-0.793309 -1.393822,-0.379802 -2.293498,-1.254321 -2.788628,-2.615698 -0.441106,-1.212849 -0.43227,-2.422627 0.01993,-3.585443 0.464822,-1.195265 1.084362,-2.330359 1.669514,-3.51157 1.67e-4,-0.03259 4.17e-4,-0.06518 5.83e-4,-0.09777 -0.02868,0.01817 -0.05736,0.03635 -0.148162,0.05299 z"
           id="path42-8"
           style="stroke-width:0.0833362" /><path
           fill="#1f2289"
           opacity="1"
           stroke="none"
           d="m 71.602769,49.848423 c 2.647801,0.501834 5.141834,1.329232 7.388641,2.778586 2.444588,1.57693 4.241951,3.766747 5.706012,6.245042 1.747822,2.958639 2.936522,6.122792 3.372303,9.543928 0.312989,2.457185 0.04239,4.879832 -0.57753,7.263612 -0.829353,3.189079 -2.218648,6.094504 -4.451919,8.557117 -0.305421,0.336789 -0.607149,0.676935 -0.91059,1.015523 -0.04614,-0.03349 -0.09228,-0.06698 -0.138417,-0.100462 0.105803,-0.347256 0.211387,-0.694579 0.317444,-1.041758 0.979739,-3.207244 1.561465,-6.474904 1.428837,-9.840915 -0.249047,-6.32065 -2.799342,-11.544543 -7.570817,-15.677768 -2.450046,-2.122313 -5.19836,-3.744849 -8.318292,-4.684192 -2.425085,-0.73014 -4.916775,-0.884697 -7.420523,-0.655008 -1.764953,0.161911 -3.516408,0.470754 -5.274095,0.712492 -0.156848,0.02157 -0.315224,0.03203 -0.485884,-0.02145 4.988315,-4.022135 10.670169,-5.182255 16.93483,-4.094745 z"
           id="path43-5"
           style="stroke-width:0.0833362" /><path
           fill="#202289"
           opacity="1"
           stroke="none"
           d="m 47.39822,56.213274 c -0.150049,-1.732881 1.011963,-3.147905 2.701576,-3.332619 1.560552,-0.170602 3.048516,1.048289 3.233281,2.648599 0.183821,1.592152 -0.957761,3.056901 -2.569417,3.296783 -1.602303,0.238493 -3.0805,-0.895709 -3.36544,-2.612763 z"
           id="path44-3"
           style="stroke-width:0.0833362" /></g></g></g></svg>
