<svg width="2802" height="1350" xmlns="http://www.w3.org/2000/svg" xmlns:xlink="http://www.w3.org/1999/xlink" xml:space="preserve" overflow="hidden"><g transform="translate(-544 -553)"><path d="M1236.11 583.529 1199.45 622.519 1164.31 653.865 1125.36 681.388 1088.7 711.968 1059.68 733.375 1041.35 744.843 1018.44 760.133 1012.33 763.191 983.306 797.595 959.63 826.647 935.954 855.699 904.64 890.866 887.837 911.508 854.232 939.031 835.902 954.322 819.1 971.141 793.133 1003.25 767.929 1023.13 758 1035.36 775.566 1056 800.77 1069 837.43 1069 874.854 1059.06 907.695 1030.77 938.245 1000.19 947.41 989.49 988.652 968.848 1038.3 929.857 1074.19 896.983 1125.36 860.286 1204.79 809.063 1256.73 774.659C1256.47 791.734 1256.22 808.808 1255.96 825.882L1255.96 861.815 1267.42 906.157 1274.29 920.683 1294.15 928.328 1323.17 930.622 1323.17 932.915 1316.3 957.38 1314.77 967.319 1321.65 991.783 1333.1 1010.13 1344.56 1015.48 1365.18 1013.19 1395.73 999.428 1424.75 1004.02 1448.43 1002.49 1461.41 1005.54 1481.27 1011.66 1508 1006.31 1542.37 991.019 1558.41 983.374 1608.82 955.851 1656.17 930.622 1689.77 918.389 1721.85 907.686 1744 896.983 1744 582 1236.11 583.529Z" fill="#FBE5D9" fill-rule="evenodd"/><path d="M1233.84 586.5C1173.62 651.812 1081.62 717.454 1018.93 758.102 991.539 779.415 908.005 895.537 882.269 916.576L823.261 969.144 756.5 1035.55C770.138 1046.65 772.943 1068.35 797.305 1068.84 828.431 1074.5 855.212 1069.61 884.688 1050.44L949.965 990.567C1006.83 965.134 1037.24 931.572 1072.87 899.657L1278.44 762.277C1316.71 760.464 1337.39 759.091 1375.99 744.644 1397.11 735.635 1419.27 732.779 1434.84 720.969 1473.06 738.821 1517.32 778.261 1550.21 779.415L1548.62 814.845 1428.95 880.102C1397.94 892.406 1367.08 898.394 1335.9 917.015 1318.8 937.449 1319.46 951.182 1313.36 969.748 1321.66 984.25 1320.56 1002.82 1338.27 1013.25 1364.72 1018.86 1376.93 1006.77 1395.3 1001.17L1449.85 1004.57C1465.41 1007.43 1470.8 1016.99 1496.54 1013.09L1552.74 988.589 1635.56 943.327C1669.82 925.419 1726.3 912.621 1744.5 896.197" stroke="#000000" stroke-width="6.875" stroke-miterlimit="8" fill="none" fill-rule="evenodd"/><path d="M821.929 970.5C829.888 993.722 830.5 993.111 829.888 1016.33 823.765 1031 813.357 1038.33 796.826 1052.39 788.255 1058.5 776.01 1053 770.5 1053" stroke="#000000" stroke-width="6.875" stroke-miterlimit="8" fill="none" fill-rule="evenodd"/><path d="M1310.5 967.934C1322.16 961.175 1323.39 958.717 1344.26 950.729 1360.83 949.5 1370.04 953.801 1380.47 956.259 1390.29 970.392 1393.36 985.753 1399.5 1000.5" stroke="#000000" stroke-width="6.875" stroke-miterlimit="8" fill="none" fill-rule="evenodd"/><path d="M1254.72 779.5C1253.5 832.188 1254.11 897.741 1271.24 918.571 1292.03 932.05 1308.54 934.5 1327.5 931.437" stroke="#000000" stroke-width="6.875" stroke-miterlimit="8" fill="none" fill-rule="evenodd"/><path d="M1314.5 761.214C1334.06 762.429 1350.56 768.5 1372.56 764.25 1390.28 760.607 1407.39 755.75 1424.5 751.5" stroke="#000000" stroke-width="6.875" stroke-miterlimit="8" fill="none" fill-rule="evenodd"/><path d="M1381.93 762.5 1397.12 792.668C1399.5 809.018 1392.41 814.413 1386.31 825.919 1374.84 845.406 1368.46 850.251 1352.5 865.5" stroke="#000000" stroke-width="6.875" stroke-miterlimit="8" fill="none" fill-rule="evenodd"/><path d="M1391.5 786.5 1425.5 767.5 1425.5 767.5" stroke="#000000" stroke-width="6.875" stroke-miterlimit="8" fill="none" fill-rule="evenodd"/><path d="M1449.26 728.5C1432.55 745.068 1424.5 749.977 1425.12 770.841 1436.88 790.477 1451.74 810.727 1463.5 836.5" stroke="#000000" stroke-width="6.875" stroke-miterlimit="8" fill="none" fill-rule="evenodd"/><path d="M1482.5 704.5C1503.4 713.673 1518.77 717.954 1534.13 734.467 1544.58 749.756 1548.27 763.211 1549.5 778.5" stroke="#000000" stroke-width="6.875" stroke-miterlimit="8" fill="none" fill-rule="evenodd"/><path d="M1492.5 940.5C1507.39 953.906 1515.14 961.219 1520.5 979.5" stroke="#000000" stroke-width="6.875" stroke-miterlimit="8" fill="none" fill-rule="evenodd"/><path d="M1429.5 945.5C1432.67 964.422 1437.1 976.63 1448.5 992.5" stroke="#000000" stroke-width="6.875" stroke-miterlimit="8" fill="none" fill-rule="evenodd"/><path d="M982.5 799.5C993.375 816.573 995.792 818.403 1011.5 824.5" stroke="#000000" stroke-width="6.875" stroke-miterlimit="8" fill="none" fill-rule="evenodd"/><path d="M1047.5 745.5C1052.5 757.22 1058.12 764.005 1062.5 781.276 1062.5 794.846 1058.12 801.014 1056.25 811.5" stroke="#000000" stroke-width="6.875" stroke-miterlimit="8" fill="none" fill-rule="evenodd"/><path d="M1009.5 767.5C1016.83 778.5 1026 786.445 1031.5 800.5" stroke="#000000" stroke-width="6.875" stroke-miterlimit="8" fill="none" fill-rule="evenodd"/><path d="M0 0 8.99993 38.9998" stroke="#000000" stroke-width="6.875" stroke-miterlimit="8" fill="none" fill-rule="evenodd" transform="matrix(-1 0 0 1 1288.5 723.5)"/><path d="M1429.5 676.5 1434.5 719.5" stroke="#000000" stroke-width="6.875" stroke-miterlimit="8" fill="none" fill-rule="evenodd"/><path d="M1523.5 771.5C1522.89 799.067 1518 816.833 1501.5 839.5" stroke="#000000" stroke-width="6.875" stroke-miterlimit="8" fill="none" fill-rule="evenodd"/><path d="M544.5 1074.5 1815.95 1074.5" stroke="#000000" stroke-width="6.875" stroke-miterlimit="8" fill="none" fill-rule="evenodd"/><path d="M2070.5 1073.5 2272.5 1073.5" stroke="#000000" stroke-width="6.875" stroke-miterlimit="8" fill="none" fill-rule="evenodd"/><path d="M2494.5 1070.5 2846.5 1070.5" stroke="#000000" stroke-width="6.875" stroke-miterlimit="8" fill="none" fill-rule="evenodd"/><path d="M2272.5 1070.5 2278.5 1044.5 2284.5 1070.5" stroke="#000000" stroke-width="6.875" stroke-miterlimit="8" fill="none" fill-rule="evenodd"/><path d="M2284.5 1070.5 2290.82 1044.5 2296.5 1070.5" stroke="#000000" stroke-width="6.875" stroke-miterlimit="8" fill="none" fill-rule="evenodd"/><path d="M2296.5 1070.5 2303 1044.5 2309.5 1070.5" stroke="#000000" stroke-width="6.875" stroke-miterlimit="8" fill="none" fill-rule="evenodd"/><path d="M2309.5 1070.5 2315.5 1044.5 2321.5 1070.5" stroke="#000000" stroke-width="6.875" stroke-miterlimit="8" fill="none" fill-rule="evenodd"/><path d="M2321.5 1070.5 2328 1044.5 2334.5 1070.5" stroke="#000000" stroke-width="6.875" stroke-miterlimit="8" fill="none" fill-rule="evenodd"/><path d="M2334.5 1070.5 2340.29 1044.5 2345.5 1070.5" stroke="#000000" stroke-width="6.875" stroke-miterlimit="8" fill="none" fill-rule="evenodd"/><path d="M2345.5 1070.5 2352 1044.5 2358.5 1070.5" stroke="#000000" stroke-width="6.875" stroke-miterlimit="8" fill="none" fill-rule="evenodd"/><path d="M2358.5 1070.5 2364.5 1044.5 2370.5 1070.5" stroke="#000000" stroke-width="6.875" stroke-miterlimit="8" fill="none" fill-rule="evenodd"/><path d="M2370.5 1070.5 2377 1044.5 2383.5 1070.5" stroke="#000000" stroke-width="6.875" stroke-miterlimit="8" fill="none" fill-rule="evenodd"/><path d="M2383.5 1070.5 2389.82 1044.5 2395.5 1070.5" stroke="#000000" stroke-width="6.875" stroke-miterlimit="8" fill="none" fill-rule="evenodd"/><path d="M2395.5 1070.5 2401.69 1044.5 2408.5 1070.5" stroke="#000000" stroke-width="6.875" stroke-miterlimit="8" fill="none" fill-rule="evenodd"/><path d="M2408.5 1070.5 2414.18 1044.5 2420.5 1070.5" stroke="#000000" stroke-width="6.875" stroke-miterlimit="8" fill="none" fill-rule="evenodd"/><path d="M2420.5 1070.5 2426.5 1044.5 2432.5 1070.5" stroke="#000000" stroke-width="6.875" stroke-miterlimit="8" fill="none" fill-rule="evenodd"/><path d="M2432.5 1070.5 2438.82 1044.5 2444.5 1070.5" stroke="#000000" stroke-width="6.875" stroke-miterlimit="8" fill="none" fill-rule="evenodd"/><path d="M2444.5 1070.5 2451.31 1044.5 2457.5 1070.5" stroke="#000000" stroke-width="6.875" stroke-miterlimit="8" fill="none" fill-rule="evenodd"/><path d="M2457.5 1070.5 2463.18 1044.5 2469.5 1070.5" stroke="#000000" stroke-width="6.875" stroke-miterlimit="8" fill="none" fill-rule="evenodd"/><path d="M2469.5 1070.5 2475.5 1044.5 2481.5 1070.5" stroke="#000000" stroke-width="6.875" stroke-miterlimit="8" fill="none" fill-rule="evenodd"/><path d="M2481.5 1070.5 2488 1044.5 2494.5 1070.5" stroke="#000000" stroke-width="6.875" stroke-miterlimit="8" fill="none" fill-rule="evenodd"/><path d="M3068.5 1068.5 3342.5 1068.5" stroke="#000000" stroke-width="6.875" stroke-miterlimit="8" fill="none" fill-rule="evenodd"/><path d="M2846.5 1068.5 2852.5 1041.5 2858.5 1068.5" stroke="#000000" stroke-width="6.875" stroke-miterlimit="8" fill="none" fill-rule="evenodd"/><path d="M2858.5 1068.5 2864.82 1041.5 2870.5 1068.5" stroke="#000000" stroke-width="6.875" stroke-miterlimit="8" fill="none" fill-rule="evenodd"/><path d="M2870.5 1068.5 2876.69 1041.5 2883.5 1068.5" stroke="#000000" stroke-width="6.875" stroke-miterlimit="8" fill="none" fill-rule="evenodd"/><path d="M2883.5 1068.5 2889.18 1041.5 2895.5 1068.5" stroke="#000000" stroke-width="6.875" stroke-miterlimit="8" fill="none" fill-rule="evenodd"/><path d="M2895.5 1068.5 2901.5 1041.5 2907.5 1068.5" stroke="#000000" stroke-width="6.875" stroke-miterlimit="8" fill="none" fill-rule="evenodd"/><path d="M2907.5 1068.5 2913.82 1041.5 2919.5 1068.5" stroke="#000000" stroke-width="6.875" stroke-miterlimit="8" fill="none" fill-rule="evenodd"/><path d="M2919.5 1068.5 2925.69 1041.5 2932.5 1068.5" stroke="#000000" stroke-width="6.875" stroke-miterlimit="8" fill="none" fill-rule="evenodd"/><path d="M2932.5 1068.5 2938.18 1041.5 2944.5 1068.5" stroke="#000000" stroke-width="6.875" stroke-miterlimit="8" fill="none" fill-rule="evenodd"/><path d="M2944.5 1068.5 2951 1041.5 2957.5 1068.5" stroke="#000000" stroke-width="6.875" stroke-miterlimit="8" fill="none" fill-rule="evenodd"/><path d="M2957.5 1068.5 2963.29 1041.5 2968.5 1068.5" stroke="#000000" stroke-width="6.875" stroke-miterlimit="8" fill="none" fill-rule="evenodd"/><path d="M2968.5 1068.5 2975.31 1041.5 2981.5 1068.5" stroke="#000000" stroke-width="6.875" stroke-miterlimit="8" fill="none" fill-rule="evenodd"/><path d="M2981.5 1068.5 2987.18 1041.5 2993.5 1068.5" stroke="#000000" stroke-width="6.875" stroke-miterlimit="8" fill="none" fill-rule="evenodd"/><path d="M2993.5 1068.5 3000 1041.5 3006.5 1068.5" stroke="#000000" stroke-width="6.875" stroke-miterlimit="8" fill="none" fill-rule="evenodd"/><path d="M3006.5 1068.5 3012.5 1041.5 3018.5 1068.5" stroke="#000000" stroke-width="6.875" stroke-miterlimit="8" fill="none" fill-rule="evenodd"/><path d="M3018.5 1068.5 3025 1041.5 3031.5 1068.5" stroke="#000000" stroke-width="6.875" stroke-miterlimit="8" fill="none" fill-rule="evenodd"/><path d="M3031.5 1068.5 3036.71 1041.5 3042.5 1068.5" stroke="#000000" stroke-width="6.875" stroke-miterlimit="8" fill="none" fill-rule="evenodd"/><path d="M3042.5 1068.5 3049 1041.5 3055.5 1068.5" stroke="#000000" stroke-width="6.875" stroke-miterlimit="8" fill="none" fill-rule="evenodd"/><path d="M3055.5 1068.5 3061.5 1041.5 3067.5 1068.5" stroke="#000000" stroke-width="6.875" stroke-miterlimit="8" fill="none" fill-rule="evenodd"/><path d="M1331.5 1899.5 2426.5 1899.5" stroke="#000000" stroke-width="6.875" stroke-miterlimit="8" fill="none" fill-rule="evenodd"/><path d="M1534.5 1900.36C1535.07 1871.3 1560.92 1848.5 1591.94 1849.07 1622.38 1850.21 1646.5 1873.58 1646.5 1901.5" stroke="#000000" stroke-width="6.875" stroke-miterlimit="8" fill="none" fill-rule="evenodd"/><path d="M2792.59 554.529 2755.9 593.52 2720.73 624.865 2681.74 652.388 2645.04 682.969 2615.99 704.375 2597.64 715.843 2574.7 731.133 2568.59 734.192 2539.53 768.595 2515.83 797.647 2492.13 826.699 2460.79 861.866 2443.97 882.508 2410.33 910.031 2391.98 925.322 2375.16 942.141 2349.17 974.251 2323.94 994.129 2314 1006.36 2331.58 1027 2356.81 1040 2393.51 1040 2430.97 1030.06 2463.85 1001.77 2494.43 971.193 2503.6 960.49 2544.89 939.847 2594.58 900.857 2630.51 867.983 2681.74 831.286 2761.25 780.063 2813.23 745.659C2812.98 762.734 2812.72 779.808 2812.47 796.882L2812.47 832.815 2823.94 877.157 2830.82 891.683 2850.7 899.328 2879.75 901.622 2879.75 903.915 2872.87 928.38 2871.34 938.318 2878.22 962.783 2889.69 981.132 2901.15 986.483 2921.8 984.19 2952.38 970.428 2981.43 975.016 3005.13 973.487 3018.13 976.544 3038 982.661 3064.76 977.309 3099.17 962.019 3115.22 954.373 3165.68 926.851 3213.08 901.622 3246.72 889.389 3278.83 878.686 3301 867.983 3301 553 2792.59 554.529Z" fill="#FBE5D9" fill-rule="evenodd"/><path d="M2790.35 557.5C2730.2 622.812 2638.29 688.454 2575.66 729.102 2548.3 750.415 2464.85 866.537 2439.14 887.576L2380.19 940.144 2313.5 1006.55C2327.12 1017.65 2329.93 1039.35 2354.26 1039.84 2385.36 1045.5 2412.11 1040.61 2441.56 1021.44L2506.77 961.567C2563.57 936.134 2593.95 902.572 2629.55 870.657L2834.91 733.277C2873.14 731.464 2893.8 730.091 2932.37 715.644 2953.46 706.635 2975.6 703.779 2991.15 691.969 3029.33 709.821 3073.55 749.261 3106.41 750.415L3104.81 785.845 2985.27 851.102C2954.29 863.406 2923.47 869.394 2892.32 888.015 2875.23 908.449 2875.89 922.182 2869.79 940.748 2878.09 955.25 2876.99 973.816 2894.68 984.253 2921.1 989.856 2933.3 977.771 2951.65 972.168L3006.15 975.574C3021.69 978.43 3027.08 987.988 3052.79 984.088L3108.93 959.589 3191.67 914.327C3225.9 896.419 3282.32 883.621 3300.5 867.196" stroke="#000000" stroke-width="6.875" stroke-miterlimit="8" fill="none" fill-rule="evenodd"/><path d="M2377.93 941.5C2385.89 964.722 2386.5 964.111 2385.89 987.333 2379.77 1002 2369.36 1009.33 2352.83 1023.39 2344.26 1029.5 2332.01 1024 2326.5 1024" stroke="#000000" stroke-width="6.875" stroke-miterlimit="8" fill="none" fill-rule="evenodd"/><path d="M2867.5 938.934C2879.03 932.175 2880.24 929.717 2900.88 921.729 2917.27 920.5 2926.37 924.801 2936.69 927.259 2946.4 941.392 2949.43 956.753 2955.5 971.5" stroke="#000000" stroke-width="6.875" stroke-miterlimit="8" fill="none" fill-rule="evenodd"/><path d="M2811.72 750.5C2810.5 803.188 2811.11 868.741 2828.24 889.571 2849.03 903.049 2865.54 905.5 2884.5 902.437" stroke="#000000" stroke-width="6.875" stroke-miterlimit="8" fill="none" fill-rule="evenodd"/><path d="M2870.5 732.214C2890.06 733.429 2906.56 739.5 2928.56 735.25 2946.28 731.607 2963.39 726.75 2980.5 722.5" stroke="#000000" stroke-width="6.875" stroke-miterlimit="8" fill="none" fill-rule="evenodd"/><path d="M2938.3 733.5 2953.17 763.668C2955.5 780.018 2948.56 785.413 2942.59 796.918 2931.36 816.406 2925.12 821.251 2909.5 836.5" stroke="#000000" stroke-width="6.875" stroke-miterlimit="8" fill="none" fill-rule="evenodd"/><path d="M2948.5 757.5 2982.5 738.5 2982.5 738.5" stroke="#000000" stroke-width="6.875" stroke-miterlimit="8" fill="none" fill-rule="evenodd"/><path d="M3005.63 699.5C2989.34 716.068 2981.5 720.977 2982.1 741.841 2993.56 761.477 3008.04 781.727 3019.5 807.5" stroke="#000000" stroke-width="6.875" stroke-miterlimit="8" fill="none" fill-rule="evenodd"/><path d="M3039.5 675.5C3060.4 684.673 3075.77 688.954 3091.13 705.467 3101.58 720.756 3105.27 734.211 3106.5 749.5" stroke="#000000" stroke-width="6.875" stroke-miterlimit="8" fill="none" fill-rule="evenodd"/><path d="M3048.5 911.5C3063.93 925.25 3071.95 932.75 3077.5 951.5" stroke="#000000" stroke-width="6.875" stroke-miterlimit="8" fill="none" fill-rule="evenodd"/><path d="M2986.5 916.5C2989.5 935.422 2993.7 947.63 3004.5 963.5" stroke="#000000" stroke-width="6.875" stroke-miterlimit="8" fill="none" fill-rule="evenodd"/><path d="M2539.5 770.5C2550.38 787.573 2552.79 789.402 2568.5 795.5" stroke="#000000" stroke-width="6.875" stroke-miterlimit="8" fill="none" fill-rule="evenodd"/><path d="M2604.5 716.5C2609.17 728.219 2614.42 735.005 2618.5 752.276 2618.5 765.846 2614.42 772.014 2612.67 782.5" stroke="#000000" stroke-width="6.875" stroke-miterlimit="8" fill="none" fill-rule="evenodd"/><path d="M2566.5 738.5C2573.83 749.5 2583 757.444 2588.5 771.5" stroke="#000000" stroke-width="6.875" stroke-miterlimit="8" fill="none" fill-rule="evenodd"/><path d="M0 0 8.99993 39.0002" stroke="#000000" stroke-width="6.875" stroke-miterlimit="8" fill="none" fill-rule="evenodd" transform="matrix(-1 0 0 1 2845.5 694.5)"/><path d="M2986.5 647.5 2991.5 691.5" stroke="#000000" stroke-width="6.875" stroke-miterlimit="8" fill="none" fill-rule="evenodd"/><path d="M3079.5 742.5C3078.89 770.068 3074 787.833 3057.5 810.5" stroke="#000000" stroke-width="6.875" stroke-miterlimit="8" fill="none" fill-rule="evenodd"/><path d="M1979.11 1363.53 1942.45 1402.44 1907.31 1433.72 1868.36 1461.18 1831.7 1491.7 1802.68 1513.06 1784.35 1524.51 1761.44 1539.77 1755.33 1542.82 1726.31 1577.15 1702.63 1606.14 1678.95 1635.14 1647.64 1670.23 1630.84 1690.83 1597.23 1718.3 1578.9 1733.56 1562.1 1750.34 1536.13 1782.39 1510.93 1802.22 1501 1814.43 1518.57 1835.03 1543.77 1848 1580.43 1848 1617.85 1838.08 1650.7 1809.85 1681.25 1779.33 1690.41 1768.65 1731.65 1748.05 1781.3 1709.14 1817.19 1676.34 1868.36 1639.71 1947.79 1588.6 1999.73 1554.26C1999.47 1571.3 1999.22 1588.34 1998.96 1605.38L1998.96 1641.24 2010.42 1685.49 2017.29 1699.99 2037.15 1707.62 2066.17 1709.91 2066.17 1712.19 2059.3 1736.61 2057.77 1746.53 2064.65 1770.94 2076.1 1789.25 2087.56 1794.59 2108.18 1792.3 2138.73 1778.57 2167.75 1783.15 2191.43 1781.62 2204.41 1784.67 2224.27 1790.78 2251 1785.44 2285.37 1770.18 2301.41 1762.55 2351.82 1735.08 2399.17 1709.91 2432.77 1697.7 2464.85 1687.02 2487 1676.34 2487 1362 1979.11 1363.53Z" fill="#FBE5D9" fill-rule="evenodd"/><path d="M1977.35 1366.5C1917.2 1431.68 1825.29 1497.19 1762.66 1537.75 1735.3 1559.02 1651.85 1674.9 1626.14 1695.9L1567.19 1748.36 1500.5 1814.63C1514.12 1825.71 1516.93 1847.36 1541.26 1847.85 1572.36 1853.5 1599.11 1848.62 1628.56 1829.49L1693.77 1769.74C1750.57 1744.36 1780.95 1710.86 1816.55 1679.02L2021.91 1541.92C2060.14 1540.11 2080.8 1538.74 2119.37 1524.32 2140.46 1515.33 2162.6 1512.48 2178.15 1500.69 2216.33 1518.51 2260.55 1557.87 2293.41 1559.02L2291.81 1594.38 2172.27 1659.5C2141.29 1671.78 2110.47 1677.75 2079.32 1696.34 2062.23 1716.73 2062.89 1730.43 2056.79 1748.96 2065.09 1763.43 2063.99 1781.96 2081.68 1792.38 2108.1 1797.97 2120.3 1785.91 2138.65 1780.32L2193.15 1783.72C2208.69 1786.57 2214.08 1796.11 2239.79 1792.21L2295.93 1767.77 2378.67 1722.6C2412.9 1704.72 2469.32 1691.95 2487.5 1675.56" stroke="#000000" stroke-width="6.875" stroke-miterlimit="8" fill="none" fill-rule="evenodd"/><path d="M1564.93 1750.5C1572.89 1773.72 1573.5 1773.11 1572.89 1796.33 1566.77 1811 1556.36 1818.33 1539.83 1832.39 1531.26 1838.5 1519.01 1833 1513.5 1833" stroke="#000000" stroke-width="6.875" stroke-miterlimit="8" fill="none" fill-rule="evenodd"/><path d="M2053.5 1746.93C2065.16 1740.17 2066.39 1737.72 2087.26 1729.73 2103.83 1728.5 2113.04 1732.8 2123.47 1735.26 2133.29 1749.39 2136.36 1764.75 2142.5 1779.5" stroke="#000000" stroke-width="6.875" stroke-miterlimit="8" fill="none" fill-rule="evenodd"/><path d="M1997.72 1558.5C1996.5 1611.19 1997.11 1676.74 2014.24 1697.57 2035.03 1711.05 2051.54 1713.5 2070.5 1710.44" stroke="#000000" stroke-width="6.875" stroke-miterlimit="8" fill="none" fill-rule="evenodd"/><path d="M2057.5 1540.21C2077.06 1541.43 2093.56 1547.5 2115.56 1543.25 2133.28 1539.61 2150.39 1534.75 2167.5 1530.5" stroke="#000000" stroke-width="6.875" stroke-miterlimit="8" fill="none" fill-rule="evenodd"/><path d="M2124.93 1542.5 2140.12 1572.67C2142.5 1589.02 2135.41 1594.41 2129.31 1605.92 2117.84 1625.41 2111.46 1630.25 2095.5 1645.5" stroke="#000000" stroke-width="6.875" stroke-miterlimit="8" fill="none" fill-rule="evenodd"/><path d="M2135.5 1565.5 2168.5 1547.5 2168.5 1547.5" stroke="#000000" stroke-width="6.875" stroke-miterlimit="8" fill="none" fill-rule="evenodd"/><path d="M2192.63 1508.5C2176.34 1524.91 2168.5 1529.78 2169.1 1550.45 2180.56 1569.9 2195.04 1589.97 2206.5 1615.5" stroke="#000000" stroke-width="6.875" stroke-miterlimit="8" fill="none" fill-rule="evenodd"/><path d="M2226.5 1484.5C2247.09 1493.67 2262.22 1497.95 2277.36 1514.47 2287.66 1529.76 2291.29 1543.21 2292.5 1558.5" stroke="#000000" stroke-width="6.875" stroke-miterlimit="8" fill="none" fill-rule="evenodd"/><path d="M2235.5 1720.5C2250.93 1733.91 2258.95 1741.22 2264.5 1759.5" stroke="#000000" stroke-width="6.875" stroke-miterlimit="8" fill="none" fill-rule="evenodd"/><path d="M2173.5 1724.5C2176.5 1743.42 2180.7 1755.63 2191.5 1771.5" stroke="#000000" stroke-width="6.875" stroke-miterlimit="8" fill="none" fill-rule="evenodd"/><path d="M1725.5 1578.5C1736.75 1596.26 1739.25 1598.16 1755.5 1604.5" stroke="#000000" stroke-width="6.875" stroke-miterlimit="8" fill="none" fill-rule="evenodd"/><path d="M1790.5 1525.5C1795.5 1537.04 1801.12 1543.72 1805.5 1560.73 1805.5 1574.1 1801.12 1580.17 1799.25 1590.5" stroke="#000000" stroke-width="6.875" stroke-miterlimit="8" fill="none" fill-rule="evenodd"/><path d="M1752.5 1546.5C1759.83 1557.5 1769 1565.44 1774.5 1579.5" stroke="#000000" stroke-width="6.875" stroke-miterlimit="8" fill="none" fill-rule="evenodd"/><path d="M0 0 7.9999 38.9998" stroke="#000000" stroke-width="6.875" stroke-miterlimit="8" fill="none" fill-rule="evenodd" transform="matrix(-1 0 0 1 2031.5 1502.5)"/><path d="M2173.5 1456.5 2177.5 1499.5" stroke="#000000" stroke-width="6.875" stroke-miterlimit="8" fill="none" fill-rule="evenodd"/><path d="M2266.5 1550.5C2265.89 1578.07 2261 1595.83 2244.5 1618.5" stroke="#000000" stroke-width="6.875" stroke-miterlimit="8" fill="none" fill-rule="evenodd"/></g></svg>